<?xml version="1.0" encoding="utf-8"?>
<!-- Generator: Adobe Illustrator 22.1.0, SVG Export Plug-In . SVG Version: 6.00 Build 0)  -->
<svg version="1.1" id="Layer_1" xmlns="http://www.w3.org/2000/svg" xmlns:xlink="http://www.w3.org/1999/xlink" x="0px" y="0px"
	 viewBox="0 0 708.7 708.7" style="enable-background:new 0 0 708.7 708.7;" xml:space="preserve">
<style type="text/css">
	.st0{fill:#00B9EB;}
	.st1{fill:#FFFFFF;}
</style>
<g id="Background">
</g>
<g id="Alm_Brand">
	<rect x="2.8" y="1.5" class="st0" width="705.2" height="705.2"/>
	<g>
		<path class="st1" d="M636.6,553.3V420.5l-42.3,6.1v5.3l15.8,5V474c-4.8-2.5-13.3-4.4-19.4-4.4c-33.4,0.2-58.1,20.4-58.1,53.7
			c0,30.4,21.3,45.2,48.2,45.2c14.1,0,23.8-7.1,29.7-12.6l2.6,12.8l40.3-5.1v-6.9L636.6,553.3z M610.1,547.3
			c-5.1,5.9-14.3,12.2-22.9,12.2c-18.9,0-25.9-16.6-25.9-37.4c0-29,13.1-44.9,32.4-44.9c5.9,0,11.8,1.9,16.4,5.5V547.3z"/>
		<path class="st1" d="M374,546.1c-0.2-17.4,0.6-31.3,0.4-47c-0.2-19.1-10.8-29.7-35-29.5c-19.6,0.2-42.9,9.5-42.7,22.7
			c0.1,16.6,18.4,14.7,18.4,14.7c7.3-13,2.8-28.5,2.8-28.5c15.1-4.3,29.8,0.9,30,21.8v17.4h-3.6c-33.7,0.7-53.4,11-53.2,28.3
			c0.1,14.1,13.2,22.6,29.9,22.5c12-0.1,24.8-8,28.5-14.4c0.7,9.5,8.1,13.7,17.6,13.6c9.5-0.1,18.1-3,26-9.2l-2.1-4.8
			C380.2,557.9,374.1,558.9,374,546.1z M347.9,548c-3.5,6-10,9.2-15.5,9.3c-8.6,0.1-13.3-6.9-13.4-14.4c-0.1-12.8,7-18.8,25.9-19.1
			h3V548z"/>
		<path class="st1" d="M106.8,381.3l-17.7-4.4l22.8-32h46.5v32l-12.2,4.4l-2.1,6.9h58.8l2.1-6.8l-17.7-4.4V260h-23.5L75.3,377
			L63,381.3l-2.1,6.8h43.7L106.8,381.3z M158.3,279.6v55h-39.2L158.3,279.6z"/>
		<path class="st1" d="M231.9,390.2c8.4,0,17.8-4,28.9-15.6l-3.3-4.5c-8.4,5.4-11,5.2-12.5,5.2c-4.4,0-4.6-3.7-3.9-5.8
			c11-33.9,41.9-127.7,41.9-127.7l-48.6,7.7v5.7l18,0.8c0,0-21,65.5-33.8,104.7c-0.9,2.6-1.9,8.2-1.9,11.9
			C216.7,376.4,217.9,390.2,231.9,390.2z"/>
		<path class="st1" d="M303.3,305.5c4.4,0,3.5,4.2,2.8,6.3c-11,33.9-23.7,76.2-23.7,76.2h25.7l9.2-31.3
			c5.4-18.6,35.9-51.8,46.2-51.8c4.9,0,0,8-10.6,42.9c-5.4,17.9-13,40.3-13,40.3h25.6l9.2-31.3c5.4-18.6,35.9-51.8,46.2-51.8
			c5.5,0-2.3,13.9-15,55.8c-0.8,2.6-1.9,8.2-1.9,11.9c0,3.8,1.2,17.6,15.2,17.6c8.4,0,17.8-4,28.9-15.6l-3.3-4.5
			c-8.4,5.4-11,5.2-12.5,5.2c-4.4,0-4.6-3.7-3.9-5.8c11-33.9,20.1-60.9,20.4-63.2c1-8.6-5.6-15.1-14.5-15.1c-17,0-42,23.1-55.3,44.8
			c3.9-10,10.4-23.9,11.2-30.6c1-8-5.3-14.2-13.7-14.2c-15,0-39.6,19.9-54.9,44.8c0,0,8-19.8,8-29.1c0-3.8-0.4-15.7-14.4-15.7
			c-8.4,0-17.8,3.9-28.9,15.6l3.3,4.5C298.1,305.8,301.8,305.5,303.3,305.5z"/>
		<path class="st1" d="M266.7,469.6c-14,0-25.3,11.8-27,15.9v-16l-42.1,5.9v5.5l15.8,4.8v69.8l-16.6,4.5v6.9h65V560l-21.7-4.5v-61.6
			c3.5-7.7,16-14.3,20.8-14.7c-2.5,17.9,6.6,25.3,6.6,25.3c8.9,0,17.8-7.5,17.8-16.3C285.4,477.1,279.8,469.6,266.7,469.6z"/>
		<path class="st1" d="M507,503.2c0-19.1-7.8-33.6-32-33.6c-16,0-29.2,9.2-35.1,17.9v-18.1c0,0-30.1,4.4-42.3,5.9v5.5l15.8,4.8v69.8
			l-15.8,4.4v6.9h59.1v-6.9l-16.6-4.5V496c4.6-7.2,14.3-15.5,26.1-15.5c10.9,0,14.3,7.2,14.3,22.7l0.1,52.1l-12.2,4.4v6.9h55.2v-6.9
			l-16.6-4.5C507.3,531.2,507,515.3,507,503.2z"/>
		<path class="st1" d="M140.8,499c12.3-0.1,37.9-11.3,37.9-30.2c0-12.7-8.8-30.2-52-30.2H63v7.1l19.1,4.4v105.2L63,559.8v6.9h66.3
			c36,0,57.5-13.9,57.5-35.9C186.7,504.9,154.5,500.1,140.8,499z M110.9,447.2c4.6-0.9,8.2-0.9,9.5-0.9c16,0,28.8,3.2,28.8,24.1
			c0,21.9-14.4,26.1-27.9,26.1c-4.6,0-8.6-0.2-10.3-0.4L110.9,447.2L110.9,447.2z M129.7,559.3c-11.2,0-18.7-2.3-18.7-2.3v-53.1
			c0.4-0.2,5.7-0.4,11.2-0.4c25.5,0,33.7,10.7,33.7,28.5C155.8,551.3,145.5,559.3,129.7,559.3z"/>
	</g>
</g>
</svg>
