<svg xmlns="http://www.w3.org/2000/svg" viewBox="0 0 1021.14 451.31"><title>infografik_alm_brand</title><g id="vej"><path d="M438.81,438.74c0-8.18-.53-21.91-.67-81.15,0-16.82,20.33-16.21,20.33-16.21h222c26.94-2.25,28.49-28,28.49-28V230.3c-1.57-30.86-33.2-29.42-33.2-29.42H402.5l.42,16.54s260.76-.16,272.27,0c17.45.23,17.09,17.79,17.09,17.79v73.68c0,16.77-18.95,16.8-18.95,16.8s-193.4.27-215.28,0c-38-.49-36.29,32-36.29,32s.51,58.11,0,82.29c-.7,33.47,40.8,30.24,40.8,30.24h330V453s-321.27-.26-337.39,0C455.12,453,438.81,454.62,438.81,438.74Z" transform="translate(-55.82 -19)" fill="#00b9ea"/><circle cx="348.77" cy="189.51" r="18.34" fill="#032846"/></g><g id="mand"><path d="M744.65,368.21a7.29,7.29,0,0,1,2.71-5s1.84-1.9,6-1.1c0,0,2.25.75,3.51.06a2.55,2.55,0,0,1-.34,2,5.4,5.4,0,0,1,1.64,4,10.76,10.76,0,0,1-1.23,5.73,9,9,0,0,1-4.6,4.6s-2.83,1.24-5.74-3.39A13.83,13.83,0,0,1,744.65,368.21Z" transform="translate(-55.82 -19)" fill="#032846"/><path d="M734.33,403.41s3.25-14,7.59-18.74a9.6,9.6,0,0,1,7.91-3.94h4.38s-.85.25.61,10.26a12.33,12.33,0,0,0,.36,1.43A9.13,9.13,0,0,0,758,391s4.17-2.68,4.75-3.29c0,0,.85.59,4.93,13.82a40.09,40.09,0,0,1,1.43,9.28s-.4,4.33-4,2.06c0,0-.94-.23-.81-3.66,0,0,.54-2.73-3-13.13l-.09,21.29H742l-.5-21.48a72,72,0,0,0-3,13.64s.49,4.35-3.23,3.85c0,0-2.23.37-1.74-4.34A37.94,37.94,0,0,1,734.33,403.41Z" transform="translate(-55.82 -19)" fill="#032846"/><polygon points="686.51 399.95 704.88 399.95 700.9 433.89 696.81 433.89 695.7 416.92 694.82 433.89 690.61 433.89 686.51 399.95" fill="#032846"/></g><g id="hjerte"><path d="M755.6,391.43l-.81-5.57s-.49-4.35.17-5.35a2,2,0,0,1,1.23-1.26,2.7,2.7,0,0,1,3.49,2.47v1.63s1.89-2.88,4-2.41c0,0,2.24.26,1.41,2.83a10.09,10.09,0,0,1-3.8,4.23A42.76,42.76,0,0,1,755.6,391.43Z" transform="translate(-55.82 -19)" fill="#e51147"/></g><g id="points"><path id="point-1" d="M516.87,176.35a17.29,17.29,0,0,0-34.57,0,12.13,12.13,0,0,0,1.33,5.56h0l0,0,.53.95,7.74,13.66,7.75,14.62,7.52-14.62,8-14.63h0A10.6,10.6,0,0,0,516.87,176.35Z" transform="translate(-55.82 -19)" fill="#00768d"/><path id="point-2" d="M717.89,237.8a17.29,17.29,0,0,0-34.57,0,12.13,12.13,0,0,0,1.33,5.56h0l0,0c.16.33.34.64.53,1L692.94,258l7.75,14.62L708.21,258l8-14.63h0A10.6,10.6,0,0,0,717.89,237.8Z" transform="translate(-55.82 -19)" fill="#00768d"/><path id="point-3" d="M591.92,299.76a17.29,17.29,0,0,0-34.58,0,12.14,12.14,0,0,0,1.34,5.56h0v0c.16.33.35.64.54,1L567,320l7.75,14.62L582.24,320l8-14.63h0A10.6,10.6,0,0,0,591.92,299.76Z" transform="translate(-55.82 -19)" fill="#00768d"/><path id="point-4" d="M446.58,384.31a17.29,17.29,0,0,0-34.57,0,12.1,12.1,0,0,0,1.33,5.56h0l0,0c.16.32.34.63.53.94l7.74,13.66,7.75,14.63,7.52-14.63,8-14.63h0A10.6,10.6,0,0,0,446.58,384.31Z" transform="translate(-55.82 -19)" fill="#00768d"/><path id="point-5" d="M660.18,427.16a17.29,17.29,0,1,0-34.57,0,12.06,12.06,0,0,0,1.33,5.55h0l0,0c.16.32.34.64.53.94l7.75,13.66L643,462l7.52-14.63,8-14.63h0A10.56,10.56,0,0,0,660.18,427.16Z" transform="translate(-55.82 -19)" fill="#00768d"/></g><g id="dots"><circle id="dot-1" cx="443.76" cy="157.35" r="11.21" fill="#cce4e8"/><circle id="dot-2" cx="644.78" cy="218.8" r="11.21" fill="#cce4e8"/><circle id="dot-3" cx="518.81" cy="280.76" r="11.21" fill="#cce4e8"/><circle id="dot-4" cx="373.47" cy="365.31" r="11.21" fill="#cce4e8"/><circle id="dot-5" cx="587.07" cy="408.16" r="11.21" fill="#cce4e8"/></g><g id="infobokse"><g id="infoboks-1"><rect x="475.74" width="343.49" height="149.5" fill="#032846"/><text transform="translate(499.73 45.92)" font-size="21" fill="#fff" font-family="Georgia-Bold, Georgia" font-weight="700">Ansøg - enkelt og nemt </text><line x1="499.73" y1="61.15" x2="540.42" y2="61.15" fill="none" stroke="#00b9ea" stroke-miterlimit="10"/><text transform="translate(499.37 86.76)" font-size="12" fill="#fff" font-family="Verdana, Verdana">Ud<tspan x="16.26" y="0" letter-spacing="0em">f</tspan><tspan x="20.42" y="0">yld </tspan><tspan x="42.51" y="0" letter-spacing="-0.01em">v</tspan><tspan x="49.51" y="0">ores digitale låneansøgning.</tspan></text><text x="-55.82" y="-19"></text></g><g id="infoboks-2"><rect x="677.65" y="65.31" width="343.49" height="142.28" fill="#032846"/><text transform="translate(701.64 111.23)" font-size="21" fill="#fff" font-family="Georgia-Bold, Georgia" font-weight="700">Vi ringer dig op</text><line x1="701.64" y1="126.47" x2="742.32" y2="126.47" fill="none" stroke="#00b9ea" stroke-miterlimit="10"/><text transform="translate(701.27 152.08)" font-size="12" fill="#fff" font-family="Verdana, Verdana">Inden for 2 <tspan x="71.77" y="0" letter-spacing="-0.01em">h</tspan><tspan x="79.25" y="0" letter-spacing="-0.01em">v</tspan><tspan x="86.24" y="0">erdage ringer </tspan><tspan x="172.01" y="0" letter-spacing="-0.01em">v</tspan><tspan x="179.01" y="0">ores kundeservice </tspan><tspan x="0" y="19">til dig og tager en snak om dine øns</tspan><tspan x="218.24" y="19" letter-spacing="-0.01em">k</tspan><tspan x="225.23" y="19">er til lånet.</tspan></text><text x="-55.82" y="-19"></text></g><g id="infoboks-3"><rect x="91.08" y="109.03" width="396.52" height="170.95" fill="#032846"/><text transform="translate(115.45 154.94) scale(1.02 1)" font-size="21" fill="#fff" font-family="Georgia-Bold, Georgia" font-weight="700">Book et møde med din rådgiver</text><line x1="115.45" y1="170.18" x2="156.76" y2="170.18" fill="none" stroke="#00b9ea" stroke-miterlimit="10" stroke-width="1.01"/><text transform="translate(115.08 195.79) scale(1.02 1)" font-size="12" fill="#fff" font-family="Verdana, Verdana">Du modtager en mail f<tspan x="136.25" y="0" letter-spacing="-0.02em">r</tspan><tspan x="141.16" y="0">a os med et link, og via det link </tspan><tspan x="0" y="19">indsender du de nød</tspan><tspan x="123.81" y="19" letter-spacing="-0.01em">v</tspan><tspan x="130.8" y="19">endige dokumente</tspan><tspan x="242.9" y="19" letter-spacing="-0.14em">r</tspan><tspan x="246.33" y="19">, samt boo</tspan><tspan x="311.03" y="19" letter-spacing="-0.01em">k</tspan><tspan x="318.02" y="19">er </tspan><tspan x="0" y="38">et møde med en rådgi</tspan><tspan x="133.94" y="38" letter-spacing="-0.01em">v</tspan><tspan x="140.94" y="38">e</tspan><tspan x="148.09" y="38" letter-spacing="-0.14em">r</tspan><tspan x="151.51" y="38">. Mødet kan foregå i en filial </tspan><tspan x="0" y="57">eller </tspan><tspan x="30.22" y="57" letter-spacing="-0.01em">o</tspan><tspan x="37.42" y="57" letter-spacing="-0.01em">v</tspan><tspan x="44.41" y="57">er telefon - det er helt op til dig. </tspan></text><text x="-55.82" y="-19"></text></g><g id="infoboks-4"><rect y="225.48" width="343.49" height="142.28" fill="#032846"/><text transform="translate(23.99 271.4)" font-size="21" fill="#fff" font-family="Georgia-Bold, Georgia" font-weight="700">Rådgivning og budget</text><line x1="23.99" y1="286.64" x2="64.67" y2="286.64" fill="none" stroke="#00b9ea" stroke-miterlimit="10"/><text transform="translate(23.62 312.24)" font-size="12" fill="#fff" font-family="Verdana, Verdana">Til mødet hjælper din rådgi<tspan x="164.33" y="0" letter-spacing="-0.01em">v</tspan><tspan x="171.32" y="0">er dig med at få </tspan><tspan x="0" y="19" letter-spacing="-0.01em">o</tspan><tspan x="7.2" y="19" letter-spacing="-0.01em">v</tspan><tspan x="14.19" y="19">erblik </tspan><tspan x="51.84" y="19" letter-spacing="-0.01em">o</tspan><tspan x="59.04" y="19" letter-spacing="-0.01em">v</tspan><tspan x="66.04" y="19">er din ø</tspan><tspan x="112.39" y="19" letter-spacing="-0.01em">k</tspan><tspan x="119.37" y="19">onomi.</tspan></text><text x="-55.82" y="-19"></text></g><g id="infoboks-5"><rect x="212.94" y="263.48" width="343.49" height="142.28" fill="#032846"/><text transform="translate(236.93 309.39)" font-size="21" fill="#fff" font-family="Georgia-Bold, Georgia" font-weight="700">Lånet godkendes</text><line x1="236.93" y1="324.63" x2="277.61" y2="324.63" fill="none" stroke="#00b9ea" stroke-miterlimit="10"/><text transform="translate(236.56 350.24)" font-size="12" fill="#fff" font-family="Verdana, Verdana"><tspan letter-spacing="-0.02em">P</tspan><tspan x="6.94" y="0">engene er til disposition på din </tspan><tspan x="197.22" y="0" letter-spacing="-0.01em">k</tspan><tspan x="204.21" y="0">onto i løbet af </tspan><tspan x="0" y="19">et par dage. </tspan></text><text x="-55.82" y="-19"></text></g></g><g id="Links"><g id="link-1"><text transform="translate(518.92 122.91)" font-size="10" fill="#00b9ea" font-family="Verdana, Verdana">Klik her for at <tspan x="72.75" y="0" letter-spacing="-0.01em">k</tspan><tspan x="78.57" y="0">omme i gang</tspan></text><line x1="507.57" y1="113.23" x2="513.59" y2="119.25" fill="none" stroke="#00b9ea" stroke-miterlimit="10" stroke-width="0.87"/><line x1="507.57" y1="124.72" x2="513.62" y2="118.67" fill="none" stroke="#00b9ea" stroke-miterlimit="10" stroke-width="0.87"/></g></g></svg>
