<svg xmlns="http://www.w3.org/2000/svg" viewBox="0 0 422.96 467.98"><title>infografik_alm_brand-mobil</title><g id="vej"><path d="M438.81,508.49c0-8.17-.53-21.91-.67-81.14,0-16.82,20.33-16.21,20.33-16.21h222c26.94-2.25,28.49-28,28.49-28V300.06c-1.57-30.86-33.2-29.42-33.2-29.42H402.5l.42,16.54s260.76-.16,272.27,0c17.45.23,17.09,17.78,17.09,17.78v73.69c0,16.77-18.95,16.8-18.95,16.8s-193.4.27-215.28,0c-38-.48-36.29,32-36.29,32s.51,58.1,0,82.29c-.7,33.47,40.8,30.23,40.8,30.23h330V522.71s-321.27-.26-337.39,0C455.12,522.71,438.81,524.38,438.81,508.49Z" transform="translate(-374.4 -72.09)" fill="#00b9ea"/><circle cx="30.2" cy="206.18" r="18.34" fill="#032846"/></g><g id="mand"><path d="M744.65,438a7.29,7.29,0,0,1,2.71-5.05s1.84-1.91,6-1.1c0,0,2.25.75,3.51.06a2.55,2.55,0,0,1-.34,2,5.4,5.4,0,0,1,1.64,4A10.77,10.77,0,0,1,757,443.6a9,9,0,0,1-4.6,4.6s-2.83,1.24-5.74-3.39A13.83,13.83,0,0,1,744.65,438Z" transform="translate(-374.4 -72.09)" fill="#032846"/><path d="M734.33,473.17s3.25-14,7.59-18.75a9.63,9.63,0,0,1,7.91-3.94h4.38s-.85.26.61,10.27a12.33,12.33,0,0,0,.36,1.43,9.13,9.13,0,0,0,2.77-1.43s4.17-2.68,4.75-3.29c0,0,.85.59,4.93,13.82a40.09,40.09,0,0,1,1.43,9.28s-.4,4.33-4,2.05c0,0-.94-.22-.81-3.66,0,0,.54-2.72-3-13.12l-.09,21.29H742l-.5-21.48a72,72,0,0,0-3,13.64s.49,4.34-3.23,3.85c0,0-2.23.37-1.74-4.34A37.94,37.94,0,0,1,734.33,473.17Z" transform="translate(-374.4 -72.09)" fill="#032846"/><polygon points="367.93 416.62 386.31 416.62 382.33 450.56 378.23 450.56 377.12 433.59 376.24 450.56 372.03 450.56 367.93 416.62" fill="#032846"/></g><g id="hjerte"><path d="M755.6,461.19l-.81-5.57s-.49-4.35.17-5.36a2,2,0,0,1,1.23-1.26,2.7,2.7,0,0,1,3.49,2.47v1.64s1.89-2.88,4-2.42c0,0,2.24.26,1.41,2.84a10.09,10.09,0,0,1-3.8,4.23A42.76,42.76,0,0,1,755.6,461.19Z" transform="translate(-374.4 -72.09)" fill="#e51147"/></g><g id="points"><path id="point-1" d="M516.87,246.11a17.29,17.29,0,1,0-34.57,0,12.13,12.13,0,0,0,1.33,5.56h0l0,0,.53.95,7.74,13.65,7.75,14.63,7.52-14.63,8-14.62h0A10.63,10.63,0,0,0,516.87,246.11Z" transform="translate(-374.4 -72.09)" fill="#00768d"/><path id="point-2" d="M717.89,307.56a17.29,17.29,0,1,0-34.57,0,12.13,12.13,0,0,0,1.33,5.56h0l0,0c.16.33.34.64.53.95l7.74,13.65,7.75,14.63,7.52-14.63,8-14.62h0A10.63,10.63,0,0,0,717.89,307.56Z" transform="translate(-374.4 -72.09)" fill="#00768d"/><path id="point-3" d="M591.92,369.52a17.29,17.29,0,0,0-34.58,0,12.14,12.14,0,0,0,1.34,5.56h0v0c.16.32.35.64.54.95L567,389.7l7.75,14.63,7.52-14.63,8-14.62h0A10.63,10.63,0,0,0,591.92,369.52Z" transform="translate(-374.4 -72.09)" fill="#00768d"/><path id="point-4" d="M446.58,454.07a17.29,17.29,0,0,0-34.57,0,12.1,12.1,0,0,0,1.33,5.56h0l0,0c.16.33.34.64.53,1l7.74,13.66,7.75,14.62,7.52-14.62,8-14.63h0A10.6,10.6,0,0,0,446.58,454.07Z" transform="translate(-374.4 -72.09)" fill="#00768d"/><path id="point-5" d="M660.18,496.92a17.29,17.29,0,1,0-34.57,0,12.06,12.06,0,0,0,1.33,5.55h0l0,0c.16.32.34.63.53.94l7.75,13.66L643,531.73l7.52-14.63,8-14.63h0A10.59,10.59,0,0,0,660.18,496.92Z" transform="translate(-374.4 -72.09)" fill="#00768d"/></g><g id="dots"><circle id="dot-1" cx="125.19" cy="174.02" r="11.21" fill="#cce4e8"/><circle id="dot-2" cx="326.21" cy="235.47" r="11.21" fill="#cce4e8"/><circle id="dot-3" cx="200.23" cy="297.43" r="11.21" fill="#cce4e8"/><circle id="dot-4" cx="54.9" cy="381.99" r="11.21" fill="#cce4e8"/><circle id="dot-5" cx="268.5" cy="424.83" r="11.21" fill="#cce4e8"/></g><g id="infobokse"><g id="infoboks-1"><rect x="79.46" width="343.49" height="149.5" fill="#032846"/><text transform="translate(103.45 45.92)" font-size="21" fill="#fff" font-family="Georgia-Bold, Georgia" font-weight="700">Ansøg - enkelt og nemt </text><line x1="103.45" y1="61.15" x2="144.14" y2="61.15" fill="none" stroke="#00b9ea" stroke-miterlimit="10"/><text transform="translate(103.09 86.76)" font-size="12" fill="#fff" font-family="Verdana, Verdana">Ud<tspan x="16.26" y="0" letter-spacing="0em">f</tspan><tspan x="20.42" y="0">yld </tspan><tspan x="42.51" y="0" letter-spacing="-0.01em">v</tspan><tspan x="49.51" y="0">ores digitale låneansøgning.</tspan></text><text x="-374.4" y="-72.09"></text></g><g id="infoboks-2"><rect x="79.46" y="66.56" width="343.49" height="142.28" fill="#032846"/><text transform="translate(103.45 112.47)" font-size="21" fill="#fff" font-family="Georgia-Bold, Georgia" font-weight="700">Vi ringer dig op</text><line x1="103.45" y1="127.71" x2="144.14" y2="127.71" fill="none" stroke="#00b9ea" stroke-miterlimit="10"/><text transform="translate(103.09 153.32)" font-size="12" fill="#fff" font-family="Verdana, Verdana">Inden for 2 <tspan x="71.77" y="0" letter-spacing="-0.01em">h</tspan><tspan x="79.25" y="0" letter-spacing="-0.01em">v</tspan><tspan x="86.24" y="0">erdage ringer </tspan><tspan x="172.01" y="0" letter-spacing="-0.01em">v</tspan><tspan x="179.01" y="0">ores kundeservice </tspan><tspan x="0" y="19">til dig og tager en snak om dine øns</tspan><tspan x="218.24" y="19" letter-spacing="-0.01em">k</tspan><tspan x="225.23" y="19">er til lånet.</tspan></text><text x="-374.4" y="-72.09"></text></g><g id="infoboks-3"><rect x="1.97" y="99.76" width="396.52" height="170.95" fill="#032846"/><text transform="translate(26.33 145.68) scale(1.02 1)" font-size="21" fill="#fff" font-family="Georgia-Bold, Georgia" font-weight="700">Book et møde med din rådgiver</text><line x1="26.33" y1="160.91" x2="67.65" y2="160.91" fill="none" stroke="#00b9ea" stroke-miterlimit="10" stroke-width="1.01"/><text transform="translate(25.96 186.52) scale(1.02 1)" font-size="12" fill="#fff" font-family="Verdana, Verdana">Du modtager en mail f<tspan x="136.25" y="0" letter-spacing="-0.02em">r</tspan><tspan x="141.16" y="0">a os med et link, og via det link </tspan><tspan x="0" y="19">indsender du de nød</tspan><tspan x="123.81" y="19" letter-spacing="-0.01em">v</tspan><tspan x="130.8" y="19">endige dokumente</tspan><tspan x="242.9" y="19" letter-spacing="-0.14em">r</tspan><tspan x="246.33" y="19">, samt boo</tspan><tspan x="311.03" y="19" letter-spacing="-0.01em">k</tspan><tspan x="318.02" y="19">er </tspan><tspan x="0" y="38">et møde med en rådgi</tspan><tspan x="133.94" y="38" letter-spacing="-0.01em">v</tspan><tspan x="140.94" y="38">e</tspan><tspan x="148.09" y="38" letter-spacing="-0.14em">r</tspan><tspan x="151.51" y="38">. Mødet kan foregå i en filial </tspan><tspan x="0" y="57">eller </tspan><tspan x="30.22" y="57" letter-spacing="-0.01em">o</tspan><tspan x="37.42" y="57" letter-spacing="-0.01em">v</tspan><tspan x="44.41" y="57">er telefon - det er helt op til dig. </tspan></text><text x="-374.4" y="-72.09"></text></g><g id="infoboks-4"><rect x="1.29" y="215.08" width="343.49" height="142.28" fill="#032846"/><text transform="translate(25.28 261)" font-size="21" fill="#fff" font-family="Georgia-Bold, Georgia" font-weight="700">Rådgivning og budget</text><line x1="25.28" y1="276.24" x2="65.97" y2="276.24" fill="none" stroke="#00b9ea" stroke-miterlimit="10"/><text transform="translate(24.92 301.84)" font-size="12" fill="#fff" font-family="Verdana, Verdana">Til mødet hjælper din rådgi<tspan x="164.33" y="0" letter-spacing="-0.01em">v</tspan><tspan x="171.32" y="0">er dig med at få </tspan><tspan x="0" y="19" letter-spacing="-0.01em">o</tspan><tspan x="7.2" y="19" letter-spacing="-0.01em">v</tspan><tspan x="14.19" y="19">erblik </tspan><tspan x="51.84" y="19" letter-spacing="-0.01em">o</tspan><tspan x="59.04" y="19" letter-spacing="-0.01em">v</tspan><tspan x="66.04" y="19">er din ø</tspan><tspan x="112.39" y="19" letter-spacing="-0.01em">k</tspan><tspan x="119.37" y="19">onomi.</tspan></text><text x="-374.4" y="-72.09"></text></g><g id="infoboks-5"><rect y="250.92" width="343.49" height="142.28" fill="#032846"/><text transform="translate(23.99 296.84)" font-size="21" fill="#fff" font-family="Georgia-Bold, Georgia" font-weight="700">Lånet godkendes</text><line x1="23.99" y1="312.07" x2="64.67" y2="312.07" fill="none" stroke="#00b9ea" stroke-miterlimit="10"/><text transform="translate(23.62 337.68)" font-size="12" fill="#fff" font-family="Verdana, Verdana"><tspan letter-spacing="-0.02em">P</tspan><tspan x="6.94" y="0">engene er til disposition på din </tspan><tspan x="197.22" y="0" letter-spacing="-0.01em">k</tspan><tspan x="204.21" y="0">onto i løbet af </tspan><tspan x="0" y="19">et par dage. </tspan></text><text x="-374.4" y="-72.09"></text></g></g><g id="Links"><g id="link-1"><text transform="translate(122.64 122.91)" font-size="10" fill="#00b9ea" font-family="Verdana, Verdana">Se ansøgningsformular</text><line x1="111.29" y1="113.23" x2="117.31" y2="119.25" fill="none" stroke="#00b9ea" stroke-miterlimit="10" stroke-width="0.87"/><line x1="111.29" y1="124.72" x2="117.34" y2="118.67" fill="none" stroke="#00b9ea" stroke-miterlimit="10" stroke-width="0.87"/></g></g></svg>
